<?xml version="1.0" encoding="UTF-8" standalone="no"?>
<!-- Created with Inkscape (http://www.inkscape.org/) -->

<svg
   width="256"
   height="256"
   viewBox="0 0 256 256"
   version="1.1"
   id="svg5"
   inkscape:version="1.2 (dc2aedaf03, 2022-05-15)"
   sodipodi:docname="telephonelogo.svg"
   inkscape:export-filename="telephonelogo.png"
   inkscape:export-xdpi="96"
   inkscape:export-ydpi="96"
   xmlns:inkscape="http://www.inkscape.org/namespaces/inkscape"
   xmlns:sodipodi="http://sodipodi.sourceforge.net/DTD/sodipodi-0.dtd"
   xmlns="http://www.w3.org/2000/svg"
   xmlns:svg="http://www.w3.org/2000/svg">
  <sodipodi:namedview
     id="namedview7"
     pagecolor="#ffffff"
     bordercolor="#666666"
     borderopacity="1.0"
     inkscape:showpageshadow="2"
     inkscape:pageopacity="0.0"
     inkscape:pagecheckerboard="true"
     inkscape:deskcolor="#d1d1d1"
     inkscape:document-units="px"
     showgrid="false"
     inkscape:zoom="1.2050781"
     inkscape:cx="28.213938"
     inkscape:cy="245.62723"
     inkscape:window-width="1024"
     inkscape:window-height="745"
     inkscape:window-x="-8"
     inkscape:window-y="-8"
     inkscape:window-maximized="1"
     inkscape:current-layer="layer1" />
  <defs
     id="defs2" />
  <g
     inkscape:label="Layer 1"
     inkscape:groupmode="layer"
     id="layer1">
    <a
       id="a2471" />
    <g
       id="g2481"
       transform="matrix(0.79201143,0,0,0.79201143,-78.854238,-47.88591)">
      <a
         id="a2467">
        <path
           style="fill:none;stroke:#000000;stroke-width:20;stroke-linecap:butt;stroke-linejoin:miter;stroke-dasharray:none;stroke-opacity:1"
           d="m 188.13808,275.27413 c -28.49465,-42.59421 -34.34221,-87.06486 -39.47755,-121.15524 -1.10738,-19.89481 2.05704,-39.35305 5.18877,-49.72838 6.57519,-21.783401 22.39304,-32.949033 41.72491,-33.502286 12.05802,-1.586526 24.51245,2.803076 38.46526,11.046062 18.19186,10.747314 19.16225,24.900534 17.5601,35.402574 -5.06744,30.58136 -9.50023,33.53622 -34.45222,42.02853 -22.05122,7.50505 51.83399,122.11434 51.83399,122.11434"
           id="path2366"
           sodipodi:nodetypes="ccscscsc" />
      </a>
      <a
         id="a2475"
         transform="matrix(0.70710678,-0.70710678,-0.70710678,-0.70710678,246.07507,588.55793)">
        <path
           style="fill:none;stroke:#000000;stroke-width:20;stroke-linecap:butt;stroke-linejoin:miter;stroke-dasharray:none;stroke-opacity:1"
           d="m 188.33132,288.51022 c -16.49953,-48.5178 -21.14092,-83.69177 -17.27804,-117.94968 4.90933,-26.97192 21.97711,-57.25299 28.6703,-65.77686 8.66982,-11.041152 30.15786,-26.030581 48.9742,-21.561526 12.05778,1.588379 17.97279,2.413278 29.31673,13.986644 14.79038,15.089512 12.06458,29.011622 7.79889,38.741152 -12.80981,28.22777 -17.85633,29.93466 -44.15607,31.67955 -23.24229,1.54204 0.85909,70.34467 0.85909,70.34467"
           id="path2473"
           sodipodi:nodetypes="ccscscsc" />
      </a>
    </g>
  </g>
</svg>
